<?xml version="1.0" encoding="utf-8"?>
<!-- Generator: Adobe Illustrator 27.8.1, SVG Export Plug-In . SVG Version: 6.00 Build 0)  -->
<svg version="1.1" id="Слой_1" xmlns="http://www.w3.org/2000/svg" xmlns:xlink="http://www.w3.org/1999/xlink" x="0px" y="0px"
	 viewBox="0 0 265 265" style="enable-background:new 0 0 265 265;" xml:space="preserve" fill="white">
<g>
	<g>
		<path d="M107.5,162.8h-44l22-117.3c0.4-2.2,0.8-4.3,1.3-6.6c0.5-2.2,0.7-4.3,0.7-6.3c0-2-0.5-3.8-1.4-5.4s-2.6-2.8-5.1-3.7
			c-1-0.2-2.2-0.4-3.4-0.6c-1.2-0.2-2.5-0.3-3.9-0.4v-0.7h30.5c3.3,0,6,1.2,8.2,3.6s3.6,5.8,4.3,10.2c1.1,8.2,2.2,15.6,3.1,22.3
			c0.9,6.7,1.8,13.1,2.7,19.2s1.7,12.3,2.6,18.6c0.9,6.3,1.9,13.1,3,20.4c0.6,3.7,1.3,7.5,2.3,11.6c1,4,2.2,7.8,3.7,11.4
			c1.5,3.5,3.1,6.4,4.9,8.6s3.8,3.3,5.9,3.3c2.8,0,4.8-1,5.8-3s1.5-4.8,1.4-8.3s-0.5-7.6-1.3-12.2c-0.8-4.6-1.6-9.5-2.4-14.7
			c-0.6-3.3-1.3-7.2-2.2-11.8c-0.9-4.6-1.8-9.6-2.8-14.9c-1-5.3-1.9-10.7-2.6-16.1s-1.2-10.7-1.4-15.8c-0.4-10.6,1.7-18.9,6.2-24.8
			c4.5-5.9,10.8-8.9,18.9-8.9c4.7,0,8.4,1.1,11.1,3.2s4.7,5,6,8.6s2.3,7.5,3,11.8s1.3,8.7,2,13.1c1.5,10.1,2.8,19.5,4,27.9
			c1.2,8.5,2.3,16.7,3.4,24.7s2.2,16.2,3.3,24.8c1.1,8.5,2.4,17.9,3.8,28.3h-21.1c-1.4-10.3-2.7-19.8-3.9-28.3
			c-1.2-8.6-2.3-16.8-3.4-24.8c-1.1-8-2.3-16.2-3.4-24.6c-1.1-8.4-2.4-17.7-3.8-27.7c-0.4-3.1-0.8-6.3-1.1-9.5
			c-0.4-3.2-0.9-6.3-1.6-9.1s-1.6-5.1-3-6.8c-1.3-1.7-3.2-2.5-5.6-2.5c-2.6,0-4.8,0.8-6.3,2.3c-1.6,1.6-2.8,3.6-3.7,6.1
			c-0.9,2.5-1.4,5.2-1.7,8s-0.4,5.5-0.4,8c0,4.3,0.4,9.5,1.3,15.6s2,12.6,3.3,19.5c1.3,6.9,2.6,13.8,4,20.7
			c1.4,6.9,2.5,13.2,3.4,19.2c0.9,5.9,1.3,10.9,1.3,15.1c0,1.6-0.2,3.4-0.5,5.3c-0.3,1.9-1,3.8-2.1,5.6c-1.1,1.8-2.7,3.2-4.8,4.4
			s-5,1.7-8.7,1.7c-5.2,0-9.6-1.4-13.3-4.2s-6.8-6.5-9.4-11.1c-2.5-4.6-4.6-9.7-6.2-15.2c-1.6-5.5-2.9-11-3.8-16.4
			c-0.9-5.4-1.7-10.5-2.2-15c-0.5-4.6-1-8.2-1.5-10.8c-0.8-5.3-1.4-9.9-2-14s-1.1-8-1.5-11.8c-0.4-3.8-0.9-8.1-1.5-12.7
			c-0.8-5.6-1.6-10.2-2.4-13.8c-0.8-3.6-2.5-6.4-5.1-8.5c-0.6,4-1,7.2-1.4,9.8c-0.4,2.6-0.7,4.9-1,6.8c-0.3,2-0.6,4-0.8,5.9
			c-0.3,2-0.6,4.3-1,7s-0.8,6-1.4,10.1c-0.6,4.2-1.1,9.2-1.7,14.9c-0.6,5.7-0.9,11.8-1,18.3c-0.1,6.5,0.2,13,0.9,19.5
			s2,12.6,3.9,18.3s4.5,10.6,7.8,14.9c3.3,4.2,7.6,7.3,12.8,9.2V162.8L107.5,162.8z"/>
	</g>
	<g>
		<path d="M107.5,162.8h-44l22-117.3c0.4-2.2,0.8-4.3,1.3-6.6c0.5-2.2,0.7-4.3,0.7-6.3c0-2-0.5-3.8-1.4-5.4s-2.6-2.8-5.1-3.7
			c-1-0.2-2.2-0.4-3.4-0.6c-1.2-0.2-2.5-0.3-3.9-0.4v-0.7h30.5c3.3,0,6,1.2,8.2,3.6s3.6,5.8,4.3,10.2c1.1,8.2,2.2,15.6,3.1,22.3
			c0.9,6.7,1.8,13.1,2.7,19.2s1.7,12.3,2.6,18.6c0.9,6.3,1.9,13.1,3,20.4c0.6,3.7,1.3,7.5,2.3,11.6c1,4,2.2,7.8,3.7,11.4
			c1.5,3.5,3.1,6.4,4.9,8.6s3.8,3.3,5.9,3.3c2.8,0,4.8-1,5.8-3s1.5-4.8,1.4-8.3s-0.5-7.6-1.3-12.2c-0.8-4.6-1.6-9.5-2.4-14.7
			c-0.6-3.3-1.3-7.2-2.2-11.8c-0.9-4.6-1.8-9.6-2.8-14.9c-1-5.3-1.9-10.7-2.6-16.1s-1.2-10.7-1.4-15.8c-0.4-10.6,1.7-18.9,6.2-24.8
			c4.5-5.9,10.8-8.9,18.9-8.9c4.7,0,8.4,1.1,11.1,3.2s4.7,5,6,8.6s2.3,7.5,3,11.8s1.3,8.7,2,13.1c1.5,10.1,2.8,19.5,4,27.9
			c1.2,8.5,2.3,16.7,3.4,24.7s2.2,16.2,3.3,24.8c1.1,8.5,2.4,17.9,3.8,28.3h-21.1c-1.4-10.3-2.7-19.8-3.9-28.3
			c-1.2-8.6-2.3-16.8-3.4-24.8c-1.1-8-2.3-16.2-3.4-24.6c-1.1-8.4-2.4-17.7-3.8-27.7c-0.4-3.1-0.8-6.3-1.1-9.5
			c-0.4-3.2-0.9-6.3-1.6-9.1s-1.6-5.1-3-6.8c-1.3-1.7-3.2-2.5-5.6-2.5c-2.6,0-4.8,0.8-6.3,2.3c-1.6,1.6-2.8,3.6-3.7,6.1
			c-0.9,2.5-1.4,5.2-1.7,8s-0.4,5.5-0.4,8c0,4.3,0.4,9.5,1.3,15.6s2,12.6,3.3,19.5c1.3,6.9,2.6,13.8,4,20.7
			c1.4,6.9,2.5,13.2,3.4,19.2c0.9,5.9,1.3,10.9,1.3,15.1c0,1.6-0.2,3.4-0.5,5.3c-0.3,1.9-1,3.8-2.1,5.6c-1.1,1.8-2.7,3.2-4.8,4.4
			s-5,1.7-8.7,1.7c-5.2,0-9.6-1.4-13.3-4.2s-6.8-6.5-9.4-11.1c-2.5-4.6-4.6-9.7-6.2-15.2c-1.6-5.5-2.9-11-3.8-16.4
			c-0.9-5.4-1.7-10.5-2.2-15c-0.5-4.6-1-8.2-1.5-10.8c-0.8-5.3-1.4-9.9-2-14s-1.1-8-1.5-11.8c-0.4-3.8-0.9-8.1-1.5-12.7
			c-0.8-5.6-1.6-10.2-2.4-13.8c-0.8-3.6-2.5-6.4-5.1-8.5c-0.6,4-1,7.2-1.4,9.8c-0.4,2.6-0.7,4.9-1,6.8c-0.3,2-0.6,4-0.8,5.9
			c-0.3,2-0.6,4.3-1,7s-0.8,6-1.4,10.1c-0.6,4.2-1.1,9.2-1.7,14.9c-0.6,5.7-0.9,11.8-1,18.3c-0.1,6.5,0.2,13,0.9,19.5
			s2,12.6,3.9,18.3s4.5,10.6,7.8,14.9c3.3,4.2,7.6,7.3,12.8,9.2V162.8L107.5,162.8z"/>
	</g>
	<g>
		<path d="M107.5,162.8h-44l22-117.3c0.4-2.2,0.8-4.3,1.3-6.6c0.5-2.2,0.7-4.3,0.7-6.3c0-2-0.5-3.8-1.4-5.4s-2.6-2.8-5.1-3.7
			c-1-0.2-2.2-0.4-3.4-0.6c-1.2-0.2-2.5-0.3-3.9-0.4v-0.7h30.5c3.3,0,6,1.2,8.2,3.6s3.6,5.8,4.3,10.2c1.1,8.2,2.2,15.6,3.1,22.3
			c0.9,6.7,1.8,13.1,2.7,19.2s1.7,12.3,2.6,18.6c0.9,6.3,1.9,13.1,3,20.4c0.6,3.7,1.3,7.5,2.3,11.6c1,4,2.2,7.8,3.7,11.4
			c1.5,3.5,3.1,6.4,4.9,8.6s3.8,3.3,5.9,3.3c2.8,0,4.8-1,5.8-3s1.5-4.8,1.4-8.3s-0.5-7.6-1.3-12.2c-0.8-4.6-1.6-9.5-2.4-14.7
			c-0.6-3.3-1.3-7.2-2.2-11.8c-0.9-4.6-1.8-9.6-2.8-14.9c-1-5.3-1.9-10.7-2.6-16.1s-1.2-10.7-1.4-15.8c-0.4-10.6,1.7-18.9,6.2-24.8
			c4.5-5.9,10.8-8.9,18.9-8.9c4.7,0,8.4,1.1,11.1,3.2s4.7,5,6,8.6s2.3,7.5,3,11.8s1.3,8.7,2,13.1c1.5,10.1,2.8,19.5,4,27.9
			c1.2,8.5,2.3,16.7,3.4,24.7s2.2,16.2,3.3,24.8c1.1,8.5,2.4,17.9,3.8,28.3h-21.1c-1.4-10.3-2.7-19.8-3.9-28.3
			c-1.2-8.6-2.3-16.8-3.4-24.8c-1.1-8-2.3-16.2-3.4-24.6c-1.1-8.4-2.4-17.7-3.8-27.7c-0.4-3.1-0.8-6.3-1.1-9.5
			c-0.4-3.2-0.9-6.3-1.6-9.1s-1.6-5.1-3-6.8c-1.3-1.7-3.2-2.5-5.6-2.5c-2.6,0-4.8,0.8-6.3,2.3c-1.6,1.6-2.8,3.6-3.7,6.1
			c-0.9,2.5-1.4,5.2-1.7,8s-0.4,5.5-0.4,8c0,4.3,0.4,9.5,1.3,15.6s2,12.6,3.3,19.5c1.3,6.9,2.6,13.8,4,20.7
			c1.4,6.9,2.5,13.2,3.4,19.2c0.9,5.9,1.3,10.9,1.3,15.1c0,1.6-0.2,3.4-0.5,5.3c-0.3,1.9-1,3.8-2.1,5.6c-1.1,1.8-2.7,3.2-4.8,4.4
			s-5,1.7-8.7,1.7c-5.2,0-9.6-1.4-13.3-4.2s-6.8-6.5-9.4-11.1c-2.5-4.6-4.6-9.7-6.2-15.2c-1.6-5.5-2.9-11-3.8-16.4
			c-0.9-5.4-1.7-10.5-2.2-15c-0.5-4.6-1-8.2-1.5-10.8c-0.8-5.3-1.4-9.9-2-14s-1.1-8-1.5-11.8c-0.4-3.8-0.9-8.1-1.5-12.7
			c-0.8-5.6-1.6-10.2-2.4-13.8c-0.8-3.6-2.5-6.4-5.1-8.5c-0.6,4-1,7.2-1.4,9.8c-0.4,2.6-0.7,4.9-1,6.8c-0.3,2-0.6,4-0.8,5.9
			c-0.3,2-0.6,4.3-1,7s-0.8,6-1.4,10.1c-0.6,4.2-1.1,9.2-1.7,14.9c-0.6,5.7-0.9,11.8-1,18.3c-0.1,6.5,0.2,13,0.9,19.5
			s2,12.6,3.9,18.3s4.5,10.6,7.8,14.9c3.3,4.2,7.6,7.3,12.8,9.2V162.8L107.5,162.8z"/>
	</g>
</g>
<g>
	<g>
		<path d="M19.1,169.8h3.5c1.9,0,3.2,0.4,4.2,1.1c1,0.7,1.4,1.7,1.4,3c0,0.7-0.2,1.3-0.5,1.9s-0.8,1-1.3,1.4s-1.1,0.7-1.8,0.9
			s-1.4,0.3-2,0.3h-1v6.4c0,0.1,0,0.3,0,0.4c0,0.2,0.1,0.3,0.2,0.4c0.1,0.1,0.2,0.2,0.2,0.4s0.2,0.1,0.3,0.1h0.1v0.2h-3.5V186h0.1
			c0.1,0,0.2-0.1,0.3-0.1c0.1-0.1,0.2-0.2,0.2-0.4s0.1-0.3,0.1-0.4c0-0.2,0-0.3,0-0.4v-13.3c0-0.2-0.1-0.5-0.2-0.8s-0.3-0.5-0.6-0.5
			h-0.1C19.1,170,19.1,169.8,19.1,169.8z M21.7,170.6v6.8h0.8c0.7,0,1.3-0.1,1.8-0.3c0.5-0.2,1-0.4,1.3-0.7s0.6-0.6,0.8-1
			c0.2-0.4,0.3-0.8,0.3-1.2c0-0.5-0.1-0.9-0.2-1.4s-0.4-0.8-0.8-1.1s-0.8-0.6-1.4-0.8c-0.6-0.2-1.3-0.3-2.2-0.3L21.7,170.6
			L21.7,170.6z"/>
		<path d="M38.8,169.5c1.3,0,2.5,0.2,3.5,0.7s1.9,1.1,2.6,1.9c0.7,0.8,1.3,1.7,1.7,2.7c0.4,1,0.6,2.1,0.6,3.2c0,1.2-0.2,2.4-0.7,3.4
			s-1.1,1.9-1.9,2.7s-1.7,1.3-2.8,1.8s-2.2,0.6-3.4,0.6c-1.3,0-2.4-0.2-3.5-0.7s-1.9-1.1-2.6-1.9s-1.2-1.6-1.6-2.6
			c-0.4-1-0.6-2-0.6-3.1c0-1.1,0.2-2.1,0.6-3.2c0.4-1,1-2,1.7-2.8c0.7-0.8,1.7-1.5,2.7-2C36.2,169.8,37.5,169.5,38.8,169.5z
			 M38.8,185.6c1.1-0.1,2.1-0.3,2.9-0.8c0.8-0.5,1.5-1,2.1-1.8s1-1.5,1.3-2.3c0.3-0.9,0.4-1.7,0.4-2.5c0-0.9-0.2-1.8-0.5-2.8
			c-0.3-0.9-0.8-1.8-1.4-2.5s-1.4-1.4-2.2-1.9c-0.9-0.5-1.8-0.7-2.9-0.7c-1,0-2,0.2-2.8,0.7s-1.5,1.1-2.1,1.8
			c-0.6,0.7-1,1.5-1.3,2.4c-0.3,0.9-0.5,1.8-0.5,2.6c0,0.9,0.2,1.8,0.5,2.8c0.3,0.9,0.8,1.8,1.5,2.5s1.3,1.4,2.2,1.8
			C36.9,185.4,37.8,185.6,38.8,185.6z"/>
		<path d="M49.4,186h0.1c0.1,0,0.2-0.1,0.3-0.1s0.2-0.2,0.3-0.3c0.1-0.1,0.1-0.3,0.2-0.4c0-0.1,0.1-0.3,0.1-0.4v-13.4
			c0-0.1,0-0.2-0.1-0.4s-0.1-0.3-0.2-0.4c-0.1-0.1-0.2-0.2-0.3-0.3s-0.2-0.1-0.3-0.1h-0.1v-0.2H53v0.2h-0.1c-0.1,0-0.2,0.1-0.3,0.1
			s-0.2,0.2-0.2,0.3c-0.1,0.1-0.1,0.3-0.2,0.4s-0.1,0.3-0.1,0.4v14h5.5c0.3,0,0.6-0.1,0.8-0.2c0.2-0.1,0.4-0.3,0.6-0.6
			s0.3-0.5,0.3-0.7c0.1-0.3,0.1-0.5,0.1-0.7h0.2v3.1H49.4V186z"/>
		<path d="M61.2,169.8h3.5v0.2h-0.1c-0.1,0-0.2,0.1-0.3,0.1c-0.1,0.1-0.2,0.2-0.2,0.3c-0.1,0.1-0.1,0.3-0.2,0.4
			c0,0.2-0.1,0.3-0.1,0.4v13.3c0,0.1,0,0.3,0,0.4s0.1,0.3,0.2,0.4c0.1,0.1,0.2,0.2,0.2,0.4s0.2,0.1,0.3,0.1h0.1v0.2h-3.5V186h0.1
			c0.1,0,0.2-0.1,0.3-0.1s0.2-0.2,0.3-0.4c0.1-0.1,0.1-0.3,0.2-0.4s0-0.3,0-0.4v-13.3c0-0.1,0-0.2,0-0.4s-0.1-0.3-0.2-0.4
			c-0.1-0.1-0.2-0.2-0.3-0.3s-0.2-0.1-0.3-0.1h-0.1L61.2,169.8L61.2,169.8z"/>
		<path d="M69.8,186h0.1v0.2h-2.8V186h0.1c0.1,0,0.2-0.1,0.3-0.1c0.1-0.1,0.2-0.2,0.3-0.4c0.1-0.1,0.1-0.3,0.2-0.4s0.1-0.3,0.1-0.4
			v-13.3c0-0.1,0-0.2,0-0.4s-0.1-0.3-0.1-0.4c-0.1-0.1-0.2-0.2-0.3-0.3c-0.1-0.1-0.3-0.1-0.4-0.1h-0.1v-0.2h2.5l9.1,14.3v-12.8
			c0-0.1,0-0.2-0.1-0.4s-0.1-0.3-0.2-0.4c-0.1-0.1-0.2-0.2-0.3-0.3s-0.2-0.1-0.3-0.1h-0.1v-0.2h2.8v0.2h-0.1c-0.1,0-0.2,0.1-0.3,0.1
			s-0.2,0.2-0.3,0.3c-0.1,0.1-0.1,0.3-0.2,0.4c0,0.1-0.1,0.3-0.1,0.4v14.9H78l-9.1-14.4v12.7c0,0.1,0,0.3,0.1,0.4
			c0,0.2,0.1,0.3,0.2,0.4c0.1,0.1,0.2,0.2,0.3,0.4C69.5,186,69.6,186,69.8,186z"/>
		<path d="M92.4,186h0.1c0.4,0,0.6-0.2,0.6-0.6c0-0.1,0-0.3-0.1-0.4l-2.2-6.1h-4.4l-2.2,6c-0.1,0.1-0.1,0.3-0.1,0.4
			c0,0.2,0.1,0.4,0.2,0.5c0.1,0.1,0.2,0.2,0.4,0.2h0.1v0.2h-2.8V186h0.1c0.2,0,0.4-0.1,0.6-0.4s0.4-0.6,0.5-0.9l5.7-15.2l5.6,15.1
			c0.1,0.3,0.3,0.7,0.5,1c0.2,0.3,0.5,0.5,0.8,0.5h0.1v0.2h-3.7L92.4,186L92.4,186z M86.7,178.1h3.8l-1.9-5.2L86.7,178.1z"/>
		<path d="M117.5,186h0.1c0.1,0,0.2-0.1,0.3-0.1c0.1-0.1,0.2-0.2,0.3-0.4s0.1-0.3,0.2-0.4c0-0.2,0.1-0.3,0.1-0.4v-13.1l-6.4,15.1
			l-6.1-14.3v12.4c0,0.1,0,0.3,0.1,0.4c0,0.2,0.1,0.3,0.2,0.4c0.1,0.1,0.2,0.2,0.3,0.4s0.2,0.1,0.3,0.1h0.1v0.2h-2.7V186h0.1
			c0.1,0,0.2-0.1,0.3-0.1c0.1-0.1,0.2-0.2,0.2-0.4s0.1-0.3,0.2-0.4s0.1-0.3,0.1-0.4v-13.3c0-0.1,0-0.2-0.1-0.4
			c0-0.1-0.1-0.3-0.2-0.4c-0.1-0.1-0.2-0.2-0.2-0.3s-0.2-0.1-0.3-0.1h-0.1v-0.2h2.6l5.8,13.7l5.8-13.7h2.8v0.2h-0.1
			c-0.1,0-0.2,0.1-0.3,0.1s-0.2,0.2-0.3,0.3c-0.1,0.1-0.1,0.3-0.2,0.4c0,0.1-0.1,0.3-0.1,0.4v13.3c0,0.1,0,0.3,0.1,0.4
			c0,0.2,0.1,0.3,0.2,0.4c0.1,0.1,0.2,0.2,0.3,0.4s0.2,0.1,0.3,0.1h0.1v0.2h-3.6L117.5,186L117.5,186L117.5,186z"/>
		<path d="M123.6,169.8h3.6v0.2H127c-0.1,0-0.2,0.1-0.3,0.1c-0.1,0.1-0.2,0.2-0.2,0.3c-0.1,0.1-0.1,0.3-0.2,0.4
			c0,0.2-0.1,0.3-0.1,0.4v13.3c0,0.1,0,0.3,0.1,0.4c0,0.2,0.1,0.3,0.2,0.4c0.1,0.1,0.2,0.2,0.2,0.4s0.2,0.1,0.3,0.1h0.1v0.2h-3.6
			V186h0.1c0.1,0,0.2-0.1,0.3-0.1s0.2-0.2,0.3-0.4c0.1-0.1,0.1-0.3,0.2-0.4c0-0.2,0.1-0.3,0.1-0.4v-13.3c0-0.1,0-0.2-0.1-0.4
			c0-0.1-0.1-0.3-0.2-0.4c-0.1-0.1-0.2-0.2-0.3-0.3s-0.2-0.1-0.3-0.1h-0.1L123.6,169.8L123.6,169.8L123.6,169.8z"/>
		<path d="M133,186h0.1v0.2h-3.6V186h0.1c0.1,0,0.2-0.1,0.4-0.1c0.1-0.1,0.2-0.2,0.3-0.4c0.1-0.1,0.1-0.3,0.2-0.4s0.1-0.3,0.1-0.4
			v-13.3c0-0.1,0-0.2-0.1-0.4s-0.1-0.3-0.2-0.4c-0.1-0.1-0.2-0.2-0.3-0.3s-0.2-0.1-0.3-0.1h-0.1v-0.2h3.6v0.2h-0.1
			c-0.1,0-0.2,0.1-0.4,0.1s-0.2,0.2-0.3,0.3c-0.1,0.1-0.1,0.3-0.2,0.4s-0.1,0.3-0.1,0.4v5.8l6.4-6.3c0.1-0.1,0.1-0.2,0.1-0.4
			c0-0.3-0.1-0.4-0.3-0.4h-0.1v-0.2h3.1v0.2h-0.1c-0.2,0-0.5,0.1-0.7,0.2s-0.5,0.4-0.8,0.6l-5.2,5.2l5.5,8.4c0,0,0.1,0.1,0.2,0.3
			c0.1,0.2,0.3,0.3,0.5,0.5c0.2,0.2,0.4,0.4,0.6,0.5c0.2,0.1,0.5,0.2,0.7,0.2v0.2h-0.6c-0.5,0-0.9,0-1.3-0.1s-0.6-0.1-0.9-0.3
			c-0.2-0.1-0.5-0.3-0.7-0.5s-0.4-0.4-0.6-0.8l-4.9-7.3l-1.1,1.1v6.2c0,0.1,0,0.3,0.1,0.4c0,0.1,0.1,0.3,0.2,0.4
			c0.1,0.1,0.1,0.3,0.2,0.4C132.8,186,132.9,186,133,186z"/>
		<path d="M152.2,169.5c1.3,0,2.5,0.2,3.5,0.7s1.9,1.1,2.6,1.9c0.7,0.8,1.3,1.7,1.7,2.7c0.4,1,0.6,2.1,0.6,3.2
			c0,1.2-0.2,2.4-0.7,3.4s-1.1,1.9-1.9,2.7s-1.7,1.3-2.8,1.8s-2.2,0.6-3.4,0.6c-1.3,0-2.4-0.2-3.5-0.7s-1.9-1.1-2.6-1.9
			s-1.2-1.6-1.6-2.6c-0.4-1-0.6-2-0.6-3.1c0-1.1,0.2-2.1,0.6-3.2c0.4-1,0.9-2,1.7-2.8c0.7-0.8,1.6-1.5,2.7-2
			C149.6,169.8,150.8,169.5,152.2,169.5z M152.1,185.6c1.1-0.1,2.1-0.3,2.9-0.8c0.8-0.5,1.6-1,2.1-1.8c0.6-0.7,1-1.5,1.3-2.3
			c0.3-0.9,0.4-1.7,0.4-2.5c0-0.9-0.2-1.8-0.5-2.8c-0.3-0.9-0.8-1.8-1.4-2.5s-1.4-1.4-2.2-1.9c-0.9-0.5-1.8-0.7-2.9-0.7
			c-1,0-2,0.2-2.8,0.7c-0.8,0.5-1.5,1.1-2.1,1.8c-0.6,0.7-1,1.5-1.3,2.4c-0.3,0.9-0.4,1.8-0.4,2.6c0,0.9,0.2,1.8,0.5,2.8
			c0.4,0.9,0.8,1.8,1.4,2.5s1.4,1.4,2.2,1.8C150.2,185.4,151.1,185.6,152.1,185.6z"/>
		<path d="M165.4,186h0.1v0.2h-2.8V186h0.1c0.1,0,0.2-0.1,0.3-0.1c0.1-0.1,0.2-0.2,0.3-0.4c0.1-0.1,0.1-0.3,0.2-0.4s0.1-0.3,0.1-0.4
			v-13.3c0-0.1,0-0.2,0-0.4s-0.1-0.3-0.1-0.4c-0.1-0.1-0.2-0.2-0.3-0.3c-0.1-0.1-0.3-0.1-0.4-0.1h-0.1v-0.2h2.5l9.1,14.3v-12.8
			c0-0.1,0-0.2-0.1-0.4s-0.1-0.3-0.2-0.4c-0.1-0.1-0.2-0.2-0.3-0.3s-0.2-0.1-0.4-0.1h-0.1v-0.2h2.8v0.2H176c-0.1,0-0.2,0.1-0.4,0.1
			s-0.2,0.2-0.3,0.3c-0.1,0.1-0.1,0.3-0.2,0.4s-0.1,0.3-0.1,0.4v14.9h-1.6l-9.1-14.4v12.7c0,0.1,0,0.3,0.1,0.4s0.1,0.3,0.2,0.4
			c0.1,0.1,0.2,0.2,0.3,0.4C165.1,186,165.2,186,165.4,186z"/>
		<path d="M186.9,169.5c1.3,0,2.5,0.2,3.5,0.7s1.9,1.1,2.6,1.9c0.7,0.8,1.3,1.7,1.7,2.7c0.4,1,0.6,2.1,0.6,3.2
			c0,1.2-0.2,2.4-0.7,3.4s-1.1,1.9-1.9,2.7s-1.7,1.3-2.8,1.8s-2.2,0.6-3.4,0.6c-1.3,0-2.4-0.2-3.5-0.7s-1.9-1.1-2.6-1.9
			s-1.2-1.6-1.6-2.6c-0.4-1-0.6-2-0.6-3.1c0-1.1,0.2-2.1,0.6-3.2c0.4-1,0.9-2,1.7-2.8c0.7-0.8,1.6-1.5,2.7-2
			C184.3,169.8,185.5,169.5,186.9,169.5z M186.9,185.6c1.1-0.1,2.1-0.3,2.9-0.8c0.8-0.5,1.6-1,2.1-1.8c0.6-0.7,1-1.5,1.3-2.3
			c0.3-0.9,0.4-1.7,0.4-2.5c0-0.9-0.2-1.8-0.5-2.8c-0.3-0.9-0.8-1.8-1.4-2.5s-1.4-1.4-2.2-1.9c-0.9-0.5-1.8-0.7-2.9-0.7
			c-1,0-2,0.2-2.8,0.7c-0.8,0.5-1.5,1.1-2.1,1.8c-0.6,0.7-1,1.5-1.3,2.4c-0.3,0.9-0.4,1.8-0.4,2.6c0,0.9,0.2,1.8,0.5,2.8
			c0.4,0.9,0.8,1.8,1.4,2.5s1.4,1.4,2.2,1.8C184.9,185.4,185.9,185.6,186.9,185.6z"/>
		<path d="M199.5,170.6c0,0.1,0,0.2,0.1,0.4l4.4,11.9l4.4-12c0,0,0-0.1,0.1-0.1c0-0.1,0-0.1,0-0.1c0-0.2-0.1-0.4-0.2-0.4
			s-0.3-0.1-0.4-0.1v-0.2h2.7v0.2c-0.2,0-0.5,0.1-0.7,0.2s-0.4,0.4-0.5,0.7l-5.7,15.7l-5.9-15.6c-0.1-0.2-0.2-0.5-0.4-0.6
			s-0.4-0.3-0.7-0.3v-0.2h3.6v0.2c-0.1,0-0.3,0.1-0.4,0.2C199.6,170.3,199.5,170.4,199.5,170.6z"/>
		<path d="M212.3,169.8h3.6v0.2h-0.1c-0.1,0-0.2,0.1-0.3,0.1c-0.1,0.1-0.2,0.2-0.2,0.3c-0.1,0.1-0.1,0.3-0.2,0.4
			c0,0.2-0.1,0.3-0.1,0.4v13.3c0,0.1,0,0.3,0.1,0.4s0.1,0.3,0.2,0.4c0.1,0.1,0.2,0.2,0.2,0.4s0.2,0.1,0.3,0.1h0.1v0.2h-3.6V186h0.1
			c0.1,0,0.2-0.1,0.4-0.1s0.2-0.2,0.3-0.4c0.1-0.1,0.1-0.3,0.2-0.4s0.1-0.3,0.1-0.4v-13.3c0-0.1,0-0.2-0.1-0.4s-0.1-0.3-0.2-0.4
			c-0.1-0.1-0.2-0.2-0.3-0.3c-0.1-0.1-0.2-0.1-0.4-0.1h-0.1L212.3,169.8L212.3,169.8z"/>
		<path d="M227.1,170.4c-1.2,0-2.3,0.2-3.2,0.7s-1.7,1-2.3,1.7c-0.6,0.7-1.1,1.5-1.3,2.4c-0.3,0.9-0.4,1.8-0.4,2.6
			c0,1,0.2,1.9,0.6,2.9c0.4,0.9,0.9,1.8,1.6,2.5s1.5,1.3,2.4,1.8s1.9,0.7,2.9,0.7c0.3,0,0.6,0,1.1-0.1s0.8-0.2,1.2-0.4
			c0.4-0.2,0.8-0.5,1.1-0.8c0.3-0.4,0.6-0.8,0.8-1.4h0.2v2.8c-0.2,0-0.5,0-0.8,0.1c-0.3,0.1-0.6,0.1-0.9,0.2
			c-0.4,0.1-0.9,0.2-1.4,0.3s-1.1,0.1-1.7,0.1c-1.4,0-2.7-0.2-3.8-0.8s-2-1.1-2.8-1.9s-1.3-1.7-1.6-2.7c-0.4-1-0.5-2-0.5-3.1
			s0.2-2.1,0.5-3.1s0.9-1.9,1.7-2.7c0.8-0.8,1.7-1.5,2.8-2s2.5-0.8,4-0.8c0.6,0,1.1,0.1,1.5,0.1c0.4,0.1,0.8,0.2,1.2,0.3
			c0.2,0.1,0.5,0.1,0.7,0.2s0.4,0.1,0.6,0.1v2.8h-0.2c-0.1-0.5-0.3-0.9-0.6-1.3s-0.6-0.6-0.9-0.8s-0.7-0.3-1.1-0.4
			C227.8,170.4,227.4,170.4,227.1,170.4z"/>
		<path d="M243.8,186h0.1c0.1,0,0.2-0.1,0.3-0.1c0.1-0.1,0.2-0.2,0.3-0.4s0.1-0.3,0.2-0.4s0.1-0.3,0.1-0.4v-6.8h-8v6.8
			c0,0.1,0,0.3,0.1,0.4s0.1,0.3,0.1,0.4c0.1,0.1,0.1,0.2,0.2,0.4c0.1,0.1,0.2,0.1,0.3,0.1h0.1v0.2h-3.5V186h0.1
			c0.1,0,0.2-0.1,0.3-0.1s0.2-0.2,0.3-0.4c0.1-0.1,0.1-0.3,0.2-0.4s0.1-0.3,0.1-0.4v-13.3c0-0.1,0-0.2-0.1-0.4s-0.1-0.3-0.1-0.4
			c-0.1-0.1-0.1-0.2-0.2-0.3s-0.2-0.1-0.4-0.1h-0.1v-0.2h3.5v0.2h-0.1c-0.1,0-0.2,0.1-0.4,0.1s-0.2,0.2-0.2,0.3
			c-0.1,0.1-0.1,0.3-0.1,0.4c0,0.1-0.1,0.3-0.1,0.4v5.6h8v-5.6c0-0.1,0-0.2-0.1-0.4s-0.1-0.3-0.1-0.4c-0.1-0.1-0.1-0.2-0.2-0.3
			s-0.2-0.1-0.4-0.1h-0.1v-0.2h3.5v0.2h-0.1c-0.1,0-0.2,0.1-0.4,0.1s-0.2,0.2-0.2,0.3c-0.1,0.1-0.1,0.3-0.1,0.4
			c0,0.1-0.1,0.3-0.1,0.4v13.3c0,0.1,0,0.3,0.1,0.4s0.1,0.3,0.2,0.4c0.1,0.1,0.1,0.2,0.2,0.4c0.1,0.1,0.2,0.1,0.3,0.1h0.1v0.2h-3.5
			L243.8,186L243.8,186L243.8,186z"/>
	</g>
	<g>
		<path d="M19.1,169.8h3.5c1.9,0,3.2,0.4,4.2,1.1c1,0.7,1.4,1.7,1.4,3c0,0.7-0.2,1.3-0.5,1.9s-0.8,1-1.3,1.4s-1.1,0.7-1.8,0.9
			s-1.4,0.3-2,0.3h-1v6.4c0,0.1,0,0.3,0,0.4c0,0.2,0.1,0.3,0.2,0.4c0.1,0.1,0.2,0.2,0.2,0.4s0.2,0.1,0.3,0.1h0.1v0.2h-3.5V186h0.1
			c0.1,0,0.2-0.1,0.3-0.1c0.1-0.1,0.2-0.2,0.2-0.4s0.1-0.3,0.1-0.4c0-0.2,0-0.3,0-0.4v-13.3c0-0.2-0.1-0.5-0.2-0.8s-0.3-0.5-0.6-0.5
			h-0.1C19.1,170,19.1,169.8,19.1,169.8z M21.7,170.6v6.8h0.8c0.7,0,1.3-0.1,1.8-0.3c0.5-0.2,1-0.4,1.3-0.7s0.6-0.6,0.8-1
			c0.2-0.4,0.3-0.8,0.3-1.2c0-0.5-0.1-0.9-0.2-1.4s-0.4-0.8-0.8-1.1s-0.8-0.6-1.4-0.8c-0.6-0.2-1.3-0.3-2.2-0.3L21.7,170.6
			L21.7,170.6z"/>
		<path d="M38.8,169.5c1.3,0,2.5,0.2,3.5,0.7s1.9,1.1,2.6,1.9c0.7,0.8,1.3,1.7,1.7,2.7c0.4,1,0.6,2.1,0.6,3.2c0,1.2-0.2,2.4-0.7,3.4
			s-1.1,1.9-1.9,2.7s-1.7,1.3-2.8,1.8s-2.2,0.6-3.4,0.6c-1.3,0-2.4-0.2-3.5-0.7s-1.9-1.1-2.6-1.9s-1.2-1.6-1.6-2.6
			c-0.4-1-0.6-2-0.6-3.1c0-1.1,0.2-2.1,0.6-3.2c0.4-1,1-2,1.7-2.8c0.7-0.8,1.7-1.5,2.7-2C36.2,169.8,37.5,169.5,38.8,169.5z
			 M38.8,185.6c1.1-0.1,2.1-0.3,2.9-0.8c0.8-0.5,1.5-1,2.1-1.8s1-1.5,1.3-2.3c0.3-0.9,0.4-1.7,0.4-2.5c0-0.9-0.2-1.8-0.5-2.8
			c-0.3-0.9-0.8-1.8-1.4-2.5s-1.4-1.4-2.2-1.9c-0.9-0.5-1.8-0.7-2.9-0.7c-1,0-2,0.2-2.8,0.7s-1.5,1.1-2.1,1.8
			c-0.6,0.7-1,1.5-1.3,2.4c-0.3,0.9-0.5,1.8-0.5,2.6c0,0.9,0.2,1.8,0.5,2.8c0.3,0.9,0.8,1.8,1.5,2.5s1.3,1.4,2.2,1.8
			C36.9,185.4,37.8,185.6,38.8,185.6z"/>
		<path d="M49.4,186h0.1c0.1,0,0.2-0.1,0.3-0.1s0.2-0.2,0.3-0.3c0.1-0.1,0.1-0.3,0.2-0.4c0-0.1,0.1-0.3,0.1-0.4v-13.4
			c0-0.1,0-0.2-0.1-0.4s-0.1-0.3-0.2-0.4c-0.1-0.1-0.2-0.2-0.3-0.3s-0.2-0.1-0.3-0.1h-0.1v-0.2H53v0.2h-0.1c-0.1,0-0.2,0.1-0.3,0.1
			s-0.2,0.2-0.2,0.3c-0.1,0.1-0.1,0.3-0.2,0.4s-0.1,0.3-0.1,0.4v14h5.5c0.3,0,0.6-0.1,0.8-0.2c0.2-0.1,0.4-0.3,0.6-0.6
			s0.3-0.5,0.3-0.7c0.1-0.3,0.1-0.5,0.1-0.7h0.2v3.1H49.4V186z"/>
		<path d="M61.2,169.8h3.5v0.2h-0.1c-0.1,0-0.2,0.1-0.3,0.1c-0.1,0.1-0.2,0.2-0.2,0.3c-0.1,0.1-0.1,0.3-0.2,0.4
			c0,0.2-0.1,0.3-0.1,0.4v13.3c0,0.1,0,0.3,0,0.4s0.1,0.3,0.2,0.4c0.1,0.1,0.2,0.2,0.2,0.4s0.2,0.1,0.3,0.1h0.1v0.2h-3.5V186h0.1
			c0.1,0,0.2-0.1,0.3-0.1s0.2-0.2,0.3-0.4c0.1-0.1,0.1-0.3,0.2-0.4s0-0.3,0-0.4v-13.3c0-0.1,0-0.2,0-0.4s-0.1-0.3-0.2-0.4
			c-0.1-0.1-0.2-0.2-0.3-0.3s-0.2-0.1-0.3-0.1h-0.1L61.2,169.8L61.2,169.8z"/>
		<path d="M69.8,186h0.1v0.2h-2.8V186h0.1c0.1,0,0.2-0.1,0.3-0.1c0.1-0.1,0.2-0.2,0.3-0.4c0.1-0.1,0.1-0.3,0.2-0.4s0.1-0.3,0.1-0.4
			v-13.3c0-0.1,0-0.2,0-0.4s-0.1-0.3-0.1-0.4c-0.1-0.1-0.2-0.2-0.3-0.3c-0.1-0.1-0.3-0.1-0.4-0.1h-0.1v-0.2h2.5l9.1,14.3v-12.8
			c0-0.1,0-0.2-0.1-0.4s-0.1-0.3-0.2-0.4c-0.1-0.1-0.2-0.2-0.3-0.3s-0.2-0.1-0.3-0.1h-0.1v-0.2h2.8v0.2h-0.1c-0.1,0-0.2,0.1-0.3,0.1
			s-0.2,0.2-0.3,0.3c-0.1,0.1-0.1,0.3-0.2,0.4c0,0.1-0.1,0.3-0.1,0.4v14.9H78l-9.1-14.4v12.7c0,0.1,0,0.3,0.1,0.4
			c0,0.2,0.1,0.3,0.2,0.4c0.1,0.1,0.2,0.2,0.3,0.4C69.5,186,69.6,186,69.8,186z"/>
		<path d="M92.4,186h0.1c0.4,0,0.6-0.2,0.6-0.6c0-0.1,0-0.3-0.1-0.4l-2.2-6.1h-4.4l-2.2,6c-0.1,0.1-0.1,0.3-0.1,0.4
			c0,0.2,0.1,0.4,0.2,0.5c0.1,0.1,0.2,0.2,0.4,0.2h0.1v0.2h-2.8V186h0.1c0.2,0,0.4-0.1,0.6-0.4s0.4-0.6,0.5-0.9l5.7-15.2l5.6,15.1
			c0.1,0.3,0.3,0.7,0.5,1c0.2,0.3,0.5,0.5,0.8,0.5h0.1v0.2h-3.7L92.4,186L92.4,186z M86.7,178.1h3.8l-1.9-5.2L86.7,178.1z"/>
		<path d="M117.5,186h0.1c0.1,0,0.2-0.1,0.3-0.1c0.1-0.1,0.2-0.2,0.3-0.4s0.1-0.3,0.2-0.4c0-0.2,0.1-0.3,0.1-0.4v-13.1l-6.4,15.1
			l-6.1-14.3v12.4c0,0.1,0,0.3,0.1,0.4c0,0.2,0.1,0.3,0.2,0.4c0.1,0.1,0.2,0.2,0.3,0.4s0.2,0.1,0.3,0.1h0.1v0.2h-2.7V186h0.1
			c0.1,0,0.2-0.1,0.3-0.1c0.1-0.1,0.2-0.2,0.2-0.4s0.1-0.3,0.2-0.4s0.1-0.3,0.1-0.4v-13.3c0-0.1,0-0.2-0.1-0.4
			c0-0.1-0.1-0.3-0.2-0.4c-0.1-0.1-0.2-0.2-0.2-0.3s-0.2-0.1-0.3-0.1h-0.1v-0.2h2.6l5.8,13.7l5.8-13.7h2.8v0.2h-0.1
			c-0.1,0-0.2,0.1-0.3,0.1s-0.2,0.2-0.3,0.3c-0.1,0.1-0.1,0.3-0.2,0.4c0,0.1-0.1,0.3-0.1,0.4v13.3c0,0.1,0,0.3,0.1,0.4
			c0,0.2,0.1,0.3,0.2,0.4c0.1,0.1,0.2,0.2,0.3,0.4s0.2,0.1,0.3,0.1h0.1v0.2h-3.6L117.5,186L117.5,186L117.5,186z"/>
		<path d="M123.6,169.8h3.6v0.2H127c-0.1,0-0.2,0.1-0.3,0.1c-0.1,0.1-0.2,0.2-0.2,0.3c-0.1,0.1-0.1,0.3-0.2,0.4
			c0,0.2-0.1,0.3-0.1,0.4v13.3c0,0.1,0,0.3,0.1,0.4c0,0.2,0.1,0.3,0.2,0.4c0.1,0.1,0.2,0.2,0.2,0.4s0.2,0.1,0.3,0.1h0.1v0.2h-3.6
			V186h0.1c0.1,0,0.2-0.1,0.3-0.1s0.2-0.2,0.3-0.4c0.1-0.1,0.1-0.3,0.2-0.4c0-0.2,0.1-0.3,0.1-0.4v-13.3c0-0.1,0-0.2-0.1-0.4
			c0-0.1-0.1-0.3-0.2-0.4c-0.1-0.1-0.2-0.2-0.3-0.3s-0.2-0.1-0.3-0.1h-0.1L123.6,169.8L123.6,169.8L123.6,169.8z"/>
		<path d="M133,186h0.1v0.2h-3.6V186h0.1c0.1,0,0.2-0.1,0.4-0.1c0.1-0.1,0.2-0.2,0.3-0.4c0.1-0.1,0.1-0.3,0.2-0.4s0.1-0.3,0.1-0.4
			v-13.3c0-0.1,0-0.2-0.1-0.4s-0.1-0.3-0.2-0.4c-0.1-0.1-0.2-0.2-0.3-0.3s-0.2-0.1-0.3-0.1h-0.1v-0.2h3.6v0.2h-0.1
			c-0.1,0-0.2,0.1-0.4,0.1s-0.2,0.2-0.3,0.3c-0.1,0.1-0.1,0.3-0.2,0.4s-0.1,0.3-0.1,0.4v5.8l6.4-6.3c0.1-0.1,0.1-0.2,0.1-0.4
			c0-0.3-0.1-0.4-0.3-0.4h-0.1v-0.2h3.1v0.2h-0.1c-0.2,0-0.5,0.1-0.7,0.2s-0.5,0.4-0.8,0.6l-5.2,5.2l5.5,8.4c0,0,0.1,0.1,0.2,0.3
			c0.1,0.2,0.3,0.3,0.5,0.5c0.2,0.2,0.4,0.4,0.6,0.5c0.2,0.1,0.5,0.2,0.7,0.2v0.2h-0.6c-0.5,0-0.9,0-1.3-0.1s-0.6-0.1-0.9-0.3
			c-0.2-0.1-0.5-0.3-0.7-0.5s-0.4-0.4-0.6-0.8l-4.9-7.3l-1.1,1.1v6.2c0,0.1,0,0.3,0.1,0.4c0,0.1,0.1,0.3,0.2,0.4
			c0.1,0.1,0.1,0.3,0.2,0.4C132.8,186,132.9,186,133,186z"/>
		<path d="M152.2,169.5c1.3,0,2.5,0.2,3.5,0.7s1.9,1.1,2.6,1.9c0.7,0.8,1.3,1.7,1.7,2.7c0.4,1,0.6,2.1,0.6,3.2
			c0,1.2-0.2,2.4-0.7,3.4s-1.1,1.9-1.9,2.7s-1.7,1.3-2.8,1.8s-2.2,0.6-3.4,0.6c-1.3,0-2.4-0.2-3.5-0.7s-1.9-1.1-2.6-1.9
			s-1.2-1.6-1.6-2.6c-0.4-1-0.6-2-0.6-3.1c0-1.1,0.2-2.1,0.6-3.2c0.4-1,0.9-2,1.7-2.8c0.7-0.8,1.6-1.5,2.7-2
			C149.6,169.8,150.8,169.5,152.2,169.5z M152.1,185.6c1.1-0.1,2.1-0.3,2.9-0.8c0.8-0.5,1.6-1,2.1-1.8c0.6-0.7,1-1.5,1.3-2.3
			c0.3-0.9,0.4-1.7,0.4-2.5c0-0.9-0.2-1.8-0.5-2.8c-0.3-0.9-0.8-1.8-1.4-2.5s-1.4-1.4-2.2-1.9c-0.9-0.5-1.8-0.7-2.9-0.7
			c-1,0-2,0.2-2.8,0.7c-0.8,0.5-1.5,1.1-2.1,1.8c-0.6,0.7-1,1.5-1.3,2.4c-0.3,0.9-0.4,1.8-0.4,2.6c0,0.9,0.2,1.8,0.5,2.8
			c0.4,0.9,0.8,1.8,1.4,2.5s1.4,1.4,2.2,1.8C150.2,185.4,151.1,185.6,152.1,185.6z"/>
		<path d="M165.4,186h0.1v0.2h-2.8V186h0.1c0.1,0,0.2-0.1,0.3-0.1c0.1-0.1,0.2-0.2,0.3-0.4c0.1-0.1,0.1-0.3,0.2-0.4s0.1-0.3,0.1-0.4
			v-13.3c0-0.1,0-0.2,0-0.4s-0.1-0.3-0.1-0.4c-0.1-0.1-0.2-0.2-0.3-0.3c-0.1-0.1-0.3-0.1-0.4-0.1h-0.1v-0.2h2.5l9.1,14.3v-12.8
			c0-0.1,0-0.2-0.1-0.4s-0.1-0.3-0.2-0.4c-0.1-0.1-0.2-0.2-0.3-0.3s-0.2-0.1-0.4-0.1h-0.1v-0.2h2.8v0.2H176c-0.1,0-0.2,0.1-0.4,0.1
			s-0.2,0.2-0.3,0.3c-0.1,0.1-0.1,0.3-0.2,0.4s-0.1,0.3-0.1,0.4v14.9h-1.6l-9.1-14.4v12.7c0,0.1,0,0.3,0.1,0.4s0.1,0.3,0.2,0.4
			c0.1,0.1,0.2,0.2,0.3,0.4C165.1,186,165.2,186,165.4,186z"/>
		<path d="M186.9,169.5c1.3,0,2.5,0.2,3.5,0.7s1.9,1.1,2.6,1.9c0.7,0.8,1.3,1.7,1.7,2.7c0.4,1,0.6,2.1,0.6,3.2
			c0,1.2-0.2,2.4-0.7,3.4s-1.1,1.9-1.9,2.7s-1.7,1.3-2.8,1.8s-2.2,0.6-3.4,0.6c-1.3,0-2.4-0.2-3.5-0.7s-1.9-1.1-2.6-1.9
			s-1.2-1.6-1.6-2.6c-0.4-1-0.6-2-0.6-3.1c0-1.1,0.2-2.1,0.6-3.2c0.4-1,0.9-2,1.7-2.8c0.7-0.8,1.6-1.5,2.7-2
			C184.3,169.8,185.5,169.5,186.9,169.5z M186.9,185.6c1.1-0.1,2.1-0.3,2.9-0.8c0.8-0.5,1.6-1,2.1-1.8c0.6-0.7,1-1.5,1.3-2.3
			c0.3-0.9,0.4-1.7,0.4-2.5c0-0.9-0.2-1.8-0.5-2.8c-0.3-0.9-0.8-1.8-1.4-2.5s-1.4-1.4-2.2-1.9c-0.9-0.5-1.8-0.7-2.9-0.7
			c-1,0-2,0.2-2.8,0.7c-0.8,0.5-1.5,1.1-2.1,1.8c-0.6,0.7-1,1.5-1.3,2.4c-0.3,0.9-0.4,1.8-0.4,2.6c0,0.9,0.2,1.8,0.5,2.8
			c0.4,0.9,0.8,1.8,1.4,2.5s1.4,1.4,2.2,1.8C184.9,185.4,185.9,185.6,186.9,185.6z"/>
		<path d="M199.5,170.6c0,0.1,0,0.2,0.1,0.4l4.4,11.9l4.4-12c0,0,0-0.1,0.1-0.1c0-0.1,0-0.1,0-0.1c0-0.2-0.1-0.4-0.2-0.4
			s-0.3-0.1-0.4-0.1v-0.2h2.7v0.2c-0.2,0-0.5,0.1-0.7,0.2s-0.4,0.4-0.5,0.7l-5.7,15.7l-5.9-15.6c-0.1-0.2-0.2-0.5-0.4-0.6
			s-0.4-0.3-0.7-0.3v-0.2h3.6v0.2c-0.1,0-0.3,0.1-0.4,0.2C199.6,170.3,199.5,170.4,199.5,170.6z"/>
		<path d="M212.3,169.8h3.6v0.2h-0.1c-0.1,0-0.2,0.1-0.3,0.1c-0.1,0.1-0.2,0.2-0.2,0.3c-0.1,0.1-0.1,0.3-0.2,0.4
			c0,0.2-0.1,0.3-0.1,0.4v13.3c0,0.1,0,0.3,0.1,0.4s0.1,0.3,0.2,0.4c0.1,0.1,0.2,0.2,0.2,0.4s0.2,0.1,0.3,0.1h0.1v0.2h-3.6V186h0.1
			c0.1,0,0.2-0.1,0.4-0.1s0.2-0.2,0.3-0.4c0.1-0.1,0.1-0.3,0.2-0.4s0.1-0.3,0.1-0.4v-13.3c0-0.1,0-0.2-0.1-0.4s-0.1-0.3-0.2-0.4
			c-0.1-0.1-0.2-0.2-0.3-0.3c-0.1-0.1-0.2-0.1-0.4-0.1h-0.1L212.3,169.8L212.3,169.8z"/>
		<path d="M227.1,170.4c-1.2,0-2.3,0.2-3.2,0.7s-1.7,1-2.3,1.7c-0.6,0.7-1.1,1.5-1.3,2.4c-0.3,0.9-0.4,1.8-0.4,2.6
			c0,1,0.2,1.9,0.6,2.9c0.4,0.9,0.9,1.8,1.6,2.5s1.5,1.3,2.4,1.8s1.9,0.7,2.9,0.7c0.3,0,0.6,0,1.1-0.1s0.8-0.2,1.2-0.4
			c0.4-0.2,0.8-0.5,1.1-0.8c0.3-0.4,0.6-0.8,0.8-1.4h0.2v2.8c-0.2,0-0.5,0-0.8,0.1c-0.3,0.1-0.6,0.1-0.9,0.2
			c-0.4,0.1-0.9,0.2-1.4,0.3s-1.1,0.1-1.7,0.1c-1.4,0-2.7-0.2-3.8-0.8s-2-1.1-2.8-1.9s-1.3-1.7-1.6-2.7c-0.4-1-0.5-2-0.5-3.1
			s0.2-2.1,0.5-3.1s0.9-1.9,1.7-2.7c0.8-0.8,1.7-1.5,2.8-2s2.5-0.8,4-0.8c0.6,0,1.1,0.1,1.5,0.1c0.4,0.1,0.8,0.2,1.2,0.3
			c0.2,0.1,0.5,0.1,0.7,0.2s0.4,0.1,0.6,0.1v2.8h-0.2c-0.1-0.5-0.3-0.9-0.6-1.3s-0.6-0.6-0.9-0.8s-0.7-0.3-1.1-0.4
			C227.8,170.4,227.4,170.4,227.1,170.4z"/>
		<path d="M243.8,186h0.1c0.1,0,0.2-0.1,0.3-0.1c0.1-0.1,0.2-0.2,0.3-0.4s0.1-0.3,0.2-0.4s0.1-0.3,0.1-0.4v-6.8h-8v6.8
			c0,0.1,0,0.3,0.1,0.4s0.1,0.3,0.1,0.4c0.1,0.1,0.1,0.2,0.2,0.4c0.1,0.1,0.2,0.1,0.3,0.1h0.1v0.2h-3.5V186h0.1
			c0.1,0,0.2-0.1,0.3-0.1s0.2-0.2,0.3-0.4c0.1-0.1,0.1-0.3,0.2-0.4s0.1-0.3,0.1-0.4v-13.3c0-0.1,0-0.2-0.1-0.4s-0.1-0.3-0.1-0.4
			c-0.1-0.1-0.1-0.2-0.2-0.3s-0.2-0.1-0.4-0.1h-0.1v-0.2h3.5v0.2h-0.1c-0.1,0-0.2,0.1-0.4,0.1s-0.2,0.2-0.2,0.3
			c-0.1,0.1-0.1,0.3-0.1,0.4c0,0.1-0.1,0.3-0.1,0.4v5.6h8v-5.6c0-0.1,0-0.2-0.1-0.4s-0.1-0.3-0.1-0.4c-0.1-0.1-0.1-0.2-0.2-0.3
			s-0.2-0.1-0.4-0.1h-0.1v-0.2h3.5v0.2h-0.1c-0.1,0-0.2,0.1-0.4,0.1s-0.2,0.2-0.2,0.3c-0.1,0.1-0.1,0.3-0.1,0.4
			c0,0.1-0.1,0.3-0.1,0.4v13.3c0,0.1,0,0.3,0.1,0.4s0.1,0.3,0.2,0.4c0.1,0.1,0.1,0.2,0.2,0.4c0.1,0.1,0.2,0.1,0.3,0.1h0.1v0.2h-3.5
			L243.8,186L243.8,186L243.8,186z"/>
	</g>
	<g>
		<path d="M19.1,169.8h3.5c1.9,0,3.2,0.4,4.2,1.1c1,0.7,1.4,1.7,1.4,3c0,0.7-0.2,1.3-0.5,1.9s-0.8,1-1.3,1.4s-1.1,0.7-1.8,0.9
			s-1.4,0.3-2,0.3h-1v6.4c0,0.1,0,0.3,0,0.4c0,0.2,0.1,0.3,0.2,0.4c0.1,0.1,0.2,0.2,0.2,0.4s0.2,0.1,0.3,0.1h0.1v0.2h-3.5V186h0.1
			c0.1,0,0.2-0.1,0.3-0.1c0.1-0.1,0.2-0.2,0.2-0.4s0.1-0.3,0.1-0.4c0-0.2,0-0.3,0-0.4v-13.3c0-0.2-0.1-0.5-0.2-0.8s-0.3-0.5-0.6-0.5
			h-0.1C19.1,170,19.1,169.8,19.1,169.8z M21.7,170.6v6.8h0.8c0.7,0,1.3-0.1,1.8-0.3c0.5-0.2,1-0.4,1.3-0.7s0.6-0.6,0.8-1
			c0.2-0.4,0.3-0.8,0.3-1.2c0-0.5-0.1-0.9-0.2-1.4s-0.4-0.8-0.8-1.1s-0.8-0.6-1.4-0.8c-0.6-0.2-1.3-0.3-2.2-0.3L21.7,170.6
			L21.7,170.6z"/>
		<path d="M38.8,169.5c1.3,0,2.5,0.2,3.5,0.7s1.9,1.1,2.6,1.9c0.7,0.8,1.3,1.7,1.7,2.7c0.4,1,0.6,2.1,0.6,3.2c0,1.2-0.2,2.4-0.7,3.4
			s-1.1,1.9-1.9,2.7s-1.7,1.3-2.8,1.8s-2.2,0.6-3.4,0.6c-1.3,0-2.4-0.2-3.5-0.7s-1.9-1.1-2.6-1.9s-1.2-1.6-1.6-2.6
			c-0.4-1-0.6-2-0.6-3.1c0-1.1,0.2-2.1,0.6-3.2c0.4-1,1-2,1.7-2.8c0.7-0.8,1.7-1.5,2.7-2C36.2,169.8,37.5,169.5,38.8,169.5z
			 M38.8,185.6c1.1-0.1,2.1-0.3,2.9-0.8c0.8-0.5,1.5-1,2.1-1.8s1-1.5,1.3-2.3c0.3-0.9,0.4-1.7,0.4-2.5c0-0.9-0.2-1.8-0.5-2.8
			c-0.3-0.9-0.8-1.8-1.4-2.5s-1.4-1.4-2.2-1.9c-0.9-0.5-1.8-0.7-2.9-0.7c-1,0-2,0.2-2.8,0.7s-1.5,1.1-2.1,1.8
			c-0.6,0.7-1,1.5-1.3,2.4c-0.3,0.9-0.5,1.8-0.5,2.6c0,0.9,0.2,1.8,0.5,2.8c0.3,0.9,0.8,1.8,1.5,2.5s1.3,1.4,2.2,1.8
			C36.9,185.4,37.8,185.6,38.8,185.6z"/>
		<path d="M49.4,186h0.1c0.1,0,0.2-0.1,0.3-0.1s0.2-0.2,0.3-0.3c0.1-0.1,0.1-0.3,0.2-0.4c0-0.1,0.1-0.3,0.1-0.4v-13.4
			c0-0.1,0-0.2-0.1-0.4s-0.1-0.3-0.2-0.4c-0.1-0.1-0.2-0.2-0.3-0.3s-0.2-0.1-0.3-0.1h-0.1v-0.2H53v0.2h-0.1c-0.1,0-0.2,0.1-0.3,0.1
			s-0.2,0.2-0.2,0.3c-0.1,0.1-0.1,0.3-0.2,0.4s-0.1,0.3-0.1,0.4v14h5.5c0.3,0,0.6-0.1,0.8-0.2c0.2-0.1,0.4-0.3,0.6-0.6
			s0.3-0.5,0.3-0.7c0.1-0.3,0.1-0.5,0.1-0.7h0.2v3.1H49.4V186z"/>
		<path d="M61.2,169.8h3.5v0.2h-0.1c-0.1,0-0.2,0.1-0.3,0.1c-0.1,0.1-0.2,0.2-0.2,0.3c-0.1,0.1-0.1,0.3-0.2,0.4
			c0,0.2-0.1,0.3-0.1,0.4v13.3c0,0.1,0,0.3,0,0.4s0.1,0.3,0.2,0.4c0.1,0.1,0.2,0.2,0.2,0.4s0.2,0.1,0.3,0.1h0.1v0.2h-3.5V186h0.1
			c0.1,0,0.2-0.1,0.3-0.1s0.2-0.2,0.3-0.4c0.1-0.1,0.1-0.3,0.2-0.4s0-0.3,0-0.4v-13.3c0-0.1,0-0.2,0-0.4s-0.1-0.3-0.2-0.4
			c-0.1-0.1-0.2-0.2-0.3-0.3s-0.2-0.1-0.3-0.1h-0.1L61.2,169.8L61.2,169.8z"/>
		<path d="M69.8,186h0.1v0.2h-2.8V186h0.1c0.1,0,0.2-0.1,0.3-0.1c0.1-0.1,0.2-0.2,0.3-0.4c0.1-0.1,0.1-0.3,0.2-0.4s0.1-0.3,0.1-0.4
			v-13.3c0-0.1,0-0.2,0-0.4s-0.1-0.3-0.1-0.4c-0.1-0.1-0.2-0.2-0.3-0.3c-0.1-0.1-0.3-0.1-0.4-0.1h-0.1v-0.2h2.5l9.1,14.3v-12.8
			c0-0.1,0-0.2-0.1-0.4s-0.1-0.3-0.2-0.4c-0.1-0.1-0.2-0.2-0.3-0.3s-0.2-0.1-0.3-0.1h-0.1v-0.2h2.8v0.2h-0.1c-0.1,0-0.2,0.1-0.3,0.1
			s-0.2,0.2-0.3,0.3c-0.1,0.1-0.1,0.3-0.2,0.4c0,0.1-0.1,0.3-0.1,0.4v14.9H78l-9.1-14.4v12.7c0,0.1,0,0.3,0.1,0.4
			c0,0.2,0.1,0.3,0.2,0.4c0.1,0.1,0.2,0.2,0.3,0.4C69.5,186,69.6,186,69.8,186z"/>
		<path d="M92.4,186h0.1c0.4,0,0.6-0.2,0.6-0.6c0-0.1,0-0.3-0.1-0.4l-2.2-6.1h-4.4l-2.2,6c-0.1,0.1-0.1,0.3-0.1,0.4
			c0,0.2,0.1,0.4,0.2,0.5c0.1,0.1,0.2,0.2,0.4,0.2h0.1v0.2h-2.8V186h0.1c0.2,0,0.4-0.1,0.6-0.4s0.4-0.6,0.5-0.9l5.7-15.2l5.6,15.1
			c0.1,0.3,0.3,0.7,0.5,1c0.2,0.3,0.5,0.5,0.8,0.5h0.1v0.2h-3.7L92.4,186L92.4,186z M86.7,178.1h3.8l-1.9-5.2L86.7,178.1z"/>
		<path d="M117.5,186h0.1c0.1,0,0.2-0.1,0.3-0.1c0.1-0.1,0.2-0.2,0.3-0.4s0.1-0.3,0.2-0.4c0-0.2,0.1-0.3,0.1-0.4v-13.1l-6.4,15.1
			l-6.1-14.3v12.4c0,0.1,0,0.3,0.1,0.4c0,0.2,0.1,0.3,0.2,0.4c0.1,0.1,0.2,0.2,0.3,0.4s0.2,0.1,0.3,0.1h0.1v0.2h-2.7V186h0.1
			c0.1,0,0.2-0.1,0.3-0.1c0.1-0.1,0.2-0.2,0.2-0.4s0.1-0.3,0.2-0.4s0.1-0.3,0.1-0.4v-13.3c0-0.1,0-0.2-0.1-0.4
			c0-0.1-0.1-0.3-0.2-0.4c-0.1-0.1-0.2-0.2-0.2-0.3s-0.2-0.1-0.3-0.1h-0.1v-0.2h2.6l5.8,13.7l5.8-13.7h2.8v0.2h-0.1
			c-0.1,0-0.2,0.1-0.3,0.1s-0.2,0.2-0.3,0.3c-0.1,0.1-0.1,0.3-0.2,0.4c0,0.1-0.1,0.3-0.1,0.4v13.3c0,0.1,0,0.3,0.1,0.4
			c0,0.2,0.1,0.3,0.2,0.4c0.1,0.1,0.2,0.2,0.3,0.4s0.2,0.1,0.3,0.1h0.1v0.2h-3.6L117.5,186L117.5,186L117.5,186z"/>
		<path d="M123.6,169.8h3.6v0.2H127c-0.1,0-0.2,0.1-0.3,0.1c-0.1,0.1-0.2,0.2-0.2,0.3c-0.1,0.1-0.1,0.3-0.2,0.4
			c0,0.2-0.1,0.3-0.1,0.4v13.3c0,0.1,0,0.3,0.1,0.4c0,0.2,0.1,0.3,0.2,0.4c0.1,0.1,0.2,0.2,0.2,0.4s0.2,0.1,0.3,0.1h0.1v0.2h-3.6
			V186h0.1c0.1,0,0.2-0.1,0.3-0.1s0.2-0.2,0.3-0.4c0.1-0.1,0.1-0.3,0.2-0.4c0-0.2,0.1-0.3,0.1-0.4v-13.3c0-0.1,0-0.2-0.1-0.4
			c0-0.1-0.1-0.3-0.2-0.4c-0.1-0.1-0.2-0.2-0.3-0.3s-0.2-0.1-0.3-0.1h-0.1L123.6,169.8L123.6,169.8L123.6,169.8z"/>
		<path d="M133,186h0.1v0.2h-3.6V186h0.1c0.1,0,0.2-0.1,0.4-0.1c0.1-0.1,0.2-0.2,0.3-0.4c0.1-0.1,0.1-0.3,0.2-0.4s0.1-0.3,0.1-0.4
			v-13.3c0-0.1,0-0.2-0.1-0.4s-0.1-0.3-0.2-0.4c-0.1-0.1-0.2-0.2-0.3-0.3s-0.2-0.1-0.3-0.1h-0.1v-0.2h3.6v0.2h-0.1
			c-0.1,0-0.2,0.1-0.4,0.1s-0.2,0.2-0.3,0.3c-0.1,0.1-0.1,0.3-0.2,0.4s-0.1,0.3-0.1,0.4v5.8l6.4-6.3c0.1-0.1,0.1-0.2,0.1-0.4
			c0-0.3-0.1-0.4-0.3-0.4h-0.1v-0.2h3.1v0.2h-0.1c-0.2,0-0.5,0.1-0.7,0.2s-0.5,0.4-0.8,0.6l-5.2,5.2l5.5,8.4c0,0,0.1,0.1,0.2,0.3
			c0.1,0.2,0.3,0.3,0.5,0.5c0.2,0.2,0.4,0.4,0.6,0.5c0.2,0.1,0.5,0.2,0.7,0.2v0.2h-0.6c-0.5,0-0.9,0-1.3-0.1s-0.6-0.1-0.9-0.3
			c-0.2-0.1-0.5-0.3-0.7-0.5s-0.4-0.4-0.6-0.8l-4.9-7.3l-1.1,1.1v6.2c0,0.1,0,0.3,0.1,0.4c0,0.1,0.1,0.3,0.2,0.4
			c0.1,0.1,0.1,0.3,0.2,0.4C132.8,186,132.9,186,133,186z"/>
		<path d="M152.2,169.5c1.3,0,2.5,0.2,3.5,0.7s1.9,1.1,2.6,1.9c0.7,0.8,1.3,1.7,1.7,2.7c0.4,1,0.6,2.1,0.6,3.2
			c0,1.2-0.2,2.4-0.7,3.4s-1.1,1.9-1.9,2.7s-1.7,1.3-2.8,1.8s-2.2,0.6-3.4,0.6c-1.3,0-2.4-0.2-3.5-0.7s-1.9-1.1-2.6-1.9
			s-1.2-1.6-1.6-2.6c-0.4-1-0.6-2-0.6-3.1c0-1.1,0.2-2.1,0.6-3.2c0.4-1,0.9-2,1.7-2.8c0.7-0.8,1.6-1.5,2.7-2
			C149.6,169.8,150.8,169.5,152.2,169.5z M152.1,185.6c1.1-0.1,2.1-0.3,2.9-0.8c0.8-0.5,1.6-1,2.1-1.8c0.6-0.7,1-1.5,1.3-2.3
			c0.3-0.9,0.4-1.7,0.4-2.5c0-0.9-0.2-1.8-0.5-2.8c-0.3-0.9-0.8-1.8-1.4-2.5s-1.4-1.4-2.2-1.9c-0.9-0.5-1.8-0.7-2.9-0.7
			c-1,0-2,0.2-2.8,0.7c-0.8,0.5-1.5,1.1-2.1,1.8c-0.6,0.7-1,1.5-1.3,2.4c-0.3,0.9-0.4,1.8-0.4,2.6c0,0.9,0.2,1.8,0.5,2.8
			c0.4,0.9,0.8,1.8,1.4,2.5s1.4,1.4,2.2,1.8C150.2,185.4,151.1,185.6,152.1,185.6z"/>
		<path d="M165.4,186h0.1v0.2h-2.8V186h0.1c0.1,0,0.2-0.1,0.3-0.1c0.1-0.1,0.2-0.2,0.3-0.4c0.1-0.1,0.1-0.3,0.2-0.4s0.1-0.3,0.1-0.4
			v-13.3c0-0.1,0-0.2,0-0.4s-0.1-0.3-0.1-0.4c-0.1-0.1-0.2-0.2-0.3-0.3c-0.1-0.1-0.3-0.1-0.4-0.1h-0.1v-0.2h2.5l9.1,14.3v-12.8
			c0-0.1,0-0.2-0.1-0.4s-0.1-0.3-0.2-0.4c-0.1-0.1-0.2-0.2-0.3-0.3s-0.2-0.1-0.4-0.1h-0.1v-0.2h2.8v0.2H176c-0.1,0-0.2,0.1-0.4,0.1
			s-0.2,0.2-0.3,0.3c-0.1,0.1-0.1,0.3-0.2,0.4s-0.1,0.3-0.1,0.4v14.9h-1.6l-9.1-14.4v12.7c0,0.1,0,0.3,0.1,0.4s0.1,0.3,0.2,0.4
			c0.1,0.1,0.2,0.2,0.3,0.4C165.1,186,165.2,186,165.4,186z"/>
		<path d="M186.9,169.5c1.3,0,2.5,0.2,3.5,0.7s1.9,1.1,2.6,1.9c0.7,0.8,1.3,1.7,1.7,2.7c0.4,1,0.6,2.1,0.6,3.2
			c0,1.2-0.2,2.4-0.7,3.4s-1.1,1.9-1.9,2.7s-1.7,1.3-2.8,1.8s-2.2,0.6-3.4,0.6c-1.3,0-2.4-0.2-3.5-0.7s-1.9-1.1-2.6-1.9
			s-1.2-1.6-1.6-2.6c-0.4-1-0.6-2-0.6-3.1c0-1.1,0.2-2.1,0.6-3.2c0.4-1,0.9-2,1.7-2.8c0.7-0.8,1.6-1.5,2.7-2
			C184.3,169.8,185.5,169.5,186.9,169.5z M186.9,185.6c1.1-0.1,2.1-0.3,2.9-0.8c0.8-0.5,1.6-1,2.1-1.8c0.6-0.7,1-1.5,1.3-2.3
			c0.3-0.9,0.4-1.7,0.4-2.5c0-0.9-0.2-1.8-0.5-2.8c-0.3-0.9-0.8-1.8-1.4-2.5s-1.4-1.4-2.2-1.9c-0.9-0.5-1.8-0.7-2.9-0.7
			c-1,0-2,0.2-2.8,0.7c-0.8,0.5-1.5,1.1-2.1,1.8c-0.6,0.7-1,1.5-1.3,2.4c-0.3,0.9-0.4,1.8-0.4,2.6c0,0.9,0.2,1.8,0.5,2.8
			c0.4,0.9,0.8,1.8,1.4,2.5s1.4,1.4,2.2,1.8C184.9,185.4,185.9,185.6,186.9,185.6z"/>
		<path d="M199.5,170.6c0,0.1,0,0.2,0.1,0.4l4.4,11.9l4.4-12c0,0,0-0.1,0.1-0.1c0-0.1,0-0.1,0-0.1c0-0.2-0.1-0.4-0.2-0.4
			s-0.3-0.1-0.4-0.1v-0.2h2.7v0.2c-0.2,0-0.5,0.1-0.7,0.2s-0.4,0.4-0.5,0.7l-5.7,15.7l-5.9-15.6c-0.1-0.2-0.2-0.5-0.4-0.6
			s-0.4-0.3-0.7-0.3v-0.2h3.6v0.2c-0.1,0-0.3,0.1-0.4,0.2C199.6,170.3,199.5,170.4,199.5,170.6z"/>
		<path d="M212.3,169.8h3.6v0.2h-0.1c-0.1,0-0.2,0.1-0.3,0.1c-0.1,0.1-0.2,0.2-0.2,0.3c-0.1,0.1-0.1,0.3-0.2,0.4
			c0,0.2-0.1,0.3-0.1,0.4v13.3c0,0.1,0,0.3,0.1,0.4s0.1,0.3,0.2,0.4c0.1,0.1,0.2,0.2,0.2,0.4s0.2,0.1,0.3,0.1h0.1v0.2h-3.6V186h0.1
			c0.1,0,0.2-0.1,0.4-0.1s0.2-0.2,0.3-0.4c0.1-0.1,0.1-0.3,0.2-0.4s0.1-0.3,0.1-0.4v-13.3c0-0.1,0-0.2-0.1-0.4s-0.1-0.3-0.2-0.4
			c-0.1-0.1-0.2-0.2-0.3-0.3c-0.1-0.1-0.2-0.1-0.4-0.1h-0.1L212.3,169.8L212.3,169.8z"/>
		<path d="M227.1,170.4c-1.2,0-2.3,0.2-3.2,0.7s-1.7,1-2.3,1.7c-0.6,0.7-1.1,1.5-1.3,2.4c-0.3,0.9-0.4,1.8-0.4,2.6
			c0,1,0.2,1.9,0.6,2.9c0.4,0.9,0.9,1.8,1.6,2.5s1.5,1.3,2.4,1.8s1.9,0.7,2.9,0.7c0.3,0,0.6,0,1.1-0.1s0.8-0.2,1.2-0.4
			c0.4-0.2,0.8-0.5,1.1-0.8c0.3-0.4,0.6-0.8,0.8-1.4h0.2v2.8c-0.2,0-0.5,0-0.8,0.1c-0.3,0.1-0.6,0.1-0.9,0.2
			c-0.4,0.1-0.9,0.2-1.4,0.3s-1.1,0.1-1.7,0.1c-1.4,0-2.7-0.2-3.8-0.8s-2-1.1-2.8-1.9s-1.3-1.7-1.6-2.7c-0.4-1-0.5-2-0.5-3.1
			s0.2-2.1,0.5-3.1s0.9-1.9,1.7-2.7c0.8-0.8,1.7-1.5,2.8-2s2.5-0.8,4-0.8c0.6,0,1.1,0.1,1.5,0.1c0.4,0.1,0.8,0.2,1.2,0.3
			c0.2,0.1,0.5,0.1,0.7,0.2s0.4,0.1,0.6,0.1v2.8h-0.2c-0.1-0.5-0.3-0.9-0.6-1.3s-0.6-0.6-0.9-0.8s-0.7-0.3-1.1-0.4
			C227.8,170.4,227.4,170.4,227.1,170.4z"/>
		<path d="M243.8,186h0.1c0.1,0,0.2-0.1,0.3-0.1c0.1-0.1,0.2-0.2,0.3-0.4s0.1-0.3,0.2-0.4s0.1-0.3,0.1-0.4v-6.8h-8v6.8
			c0,0.1,0,0.3,0.1,0.4s0.1,0.3,0.1,0.4c0.1,0.1,0.1,0.2,0.2,0.4c0.1,0.1,0.2,0.1,0.3,0.1h0.1v0.2h-3.5V186h0.1
			c0.1,0,0.2-0.1,0.3-0.1s0.2-0.2,0.3-0.4c0.1-0.1,0.1-0.3,0.2-0.4s0.1-0.3,0.1-0.4v-13.3c0-0.1,0-0.2-0.1-0.4s-0.1-0.3-0.1-0.4
			c-0.1-0.1-0.1-0.2-0.2-0.3s-0.2-0.1-0.4-0.1h-0.1v-0.2h3.5v0.2h-0.1c-0.1,0-0.2,0.1-0.4,0.1s-0.2,0.2-0.2,0.3
			c-0.1,0.1-0.1,0.3-0.1,0.4c0,0.1-0.1,0.3-0.1,0.4v5.6h8v-5.6c0-0.1,0-0.2-0.1-0.4s-0.1-0.3-0.1-0.4c-0.1-0.1-0.1-0.2-0.2-0.3
			s-0.2-0.1-0.4-0.1h-0.1v-0.2h3.5v0.2h-0.1c-0.1,0-0.2,0.1-0.4,0.1s-0.2,0.2-0.2,0.3c-0.1,0.1-0.1,0.3-0.1,0.4
			c0,0.1-0.1,0.3-0.1,0.4v13.3c0,0.1,0,0.3,0.1,0.4s0.1,0.3,0.2,0.4c0.1,0.1,0.1,0.2,0.2,0.4c0.1,0.1,0.2,0.1,0.3,0.1h0.1v0.2h-3.5
			L243.8,186L243.8,186L243.8,186z"/>
	</g>
</g>
<circle cx="214" cy="159.4" r="3.4"/>
</svg>
