<svg width="40" height="40" viewBox="0 0 40 40" fill="none" xmlns="http://www.w3.org/2000/svg">
<g id="icon/telegram">
<path id="vector" fill-rule="evenodd" clip-rule="evenodd" d="M36.6666 20C36.6666 29.2047 29.2047 36.6666 19.9999 36.6666C10.7952 36.6666 3.33325 29.2047 3.33325 20C3.33325 10.7952 10.7952 3.33331 19.9999 3.33331C29.2047 3.33331 36.6666 10.7952 36.6666 20ZM20.5971 15.6374C18.9761 16.3117 15.7362 17.7072 10.8775 19.8241C10.0885 20.1378 9.67525 20.4447 9.63762 20.7449C9.57404 21.2521 10.2092 21.4518 11.0742 21.7238C11.1918 21.7608 11.3137 21.7991 11.4387 21.8397C12.2897 22.1164 13.4344 22.44 14.0295 22.4528C14.5693 22.4645 15.1717 22.2419 15.8369 21.7852C20.3765 18.7208 22.7199 17.172 22.867 17.1386C22.9708 17.115 23.1146 17.0854 23.2121 17.172C23.3095 17.2586 23.2999 17.4227 23.2896 17.4667C23.2267 17.7349 20.7334 20.0529 19.4431 21.2525C19.0409 21.6264 18.7555 21.8917 18.6972 21.9523C18.5666 22.088 18.4334 22.2164 18.3054 22.3397C17.5148 23.1019 16.922 23.6734 18.3382 24.6067C19.0188 25.0552 19.5634 25.426 20.1067 25.796C20.7001 26.2001 21.2919 26.6032 22.0577 27.1051C22.2528 27.233 22.4391 27.3658 22.6206 27.4952C23.3111 27.9875 23.9315 28.4298 24.6979 28.3592C25.1433 28.3182 25.6033 27.8995 25.8369 26.6505C26.3891 23.6988 27.4744 17.3034 27.7252 14.668C27.7472 14.4371 27.7195 14.1416 27.6973 14.0119C27.6751 13.8822 27.6287 13.6974 27.4601 13.5606C27.2604 13.3985 26.9522 13.3644 26.8143 13.3668C26.1874 13.3778 25.2257 13.7122 20.5971 15.6374Z" fill="white"/>
</g>
</svg>
